<?xml version="1.0" encoding="UTF-8" standalone="no"?> <svg width="48" height="48" viewBox="0 0 48 48" fill="none" xmlns="http://www.w3.org/2000/svg">
<path d="M24 43C36.7025 43 47 38.0751 47 32C47 25.9249 36.7025 21 24 21C11.2975 21 1 25.9249 1 32C1 38.0751 11.2975 43 24 43Z" fill="#00CF66"/>
<path d="M28.182 39.7C14.9 39.7 4.136 34.551 4.136 28.2C4.14024 27.4991 4.27206 26.8047 4.525 26.151C2.3 27.845 1 29.85 1 32C1 38.075 11.3 43 24 43C33.461 43 41.584 40.267 45.115 36.363C39.7753 38.6768 34.0003 39.8148 28.182 39.7V39.7Z" fill="#00B157"/>
<path d="M16 35.5C19.3137 35.5 22 33.933 22 32C22 30.067 19.3137 28.5 16 28.5C12.6863 28.5 10 30.067 10 32C10 33.933 12.6863 35.5 16 35.5Z" fill="#C6512B"/>
<path d="M16 18C15.8123 17.9995 15.6285 17.9469 15.469 17.848C15.3254 17.758 15.207 17.6329 15.1249 17.4846C15.0429 17.3363 14.9999 17.1695 15 17V5.99999C15 5.8285 15.0441 5.6599 15.128 5.51037C15.212 5.36084 15.333 5.23541 15.4794 5.14614C15.6258 5.05686 15.7927 5.00674 15.9641 5.00058C16.1355 4.99443 16.3056 5.03245 16.458 5.11099L27.458 10.783C27.6231 10.868 27.7613 10.9974 27.8571 11.1566C27.9528 11.3158 28.0023 11.4985 28 11.6843C27.9977 11.87 27.9438 12.0515 27.8441 12.2083C27.7445 12.3651 27.6032 12.491 27.436 12.572L16.436 17.9C16.3001 17.9658 16.151 18 16 18Z" fill="#FD3730"/>
<path d="M16 5C15.7348 5 15.4804 5.10536 15.2929 5.29289C15.1054 5.48043 15 5.73478 15 6V35.448C15.326 35.479 15.659 35.5 16 35.5C16.341 35.5 16.674 35.479 17 35.448V6C17 5.73478 16.8946 5.48043 16.7071 5.29289C16.5196 5.10536 16.2652 5 16 5Z" fill="#2D4A60"/>
<path d="M16 32.5C15.659 32.5 15.326 32.479 15 32.448V35.448C15.326 35.479 15.659 35.5 16 35.5C16.341 35.5 16.674 35.479 17 35.448V32.448C16.674 32.479 16.341 32.5 16 32.5Z" fill="#263F52"/>
<path d="M34 30C37.3137 30 40 27.3137 40 24C40 20.6863 37.3137 18 34 18C30.6863 18 28 20.6863 28 24C28 27.3137 30.6863 30 34 30Z" fill="#EAEFF0"/>
<path d="M35.8 27.6C34.7307 27.5991 33.6858 27.2807 32.7977 26.6853C31.9095 26.0899 31.2182 25.2442 30.8112 24.2554C30.4042 23.2666 30.2999 22.1793 30.5115 21.1312C30.7232 20.0831 31.2412 19.1214 32 18.368C31.0451 18.7036 30.1909 19.2758 29.5172 20.0312C28.8435 20.7865 28.3723 21.7004 28.1477 22.6873C27.9232 23.6743 27.9525 24.702 28.233 25.6745C28.5136 26.647 29.0361 27.5325 29.7518 28.2482C30.4675 28.9639 31.353 29.4864 32.3255 29.767C33.298 30.0475 34.3258 30.0768 35.3127 29.8523C36.2996 29.6277 37.2135 29.1565 37.9688 28.4828C38.7242 27.8092 39.2964 26.9549 39.632 26C39.1311 26.5072 38.5344 26.9099 37.8766 27.1846C37.2187 27.4592 36.5129 27.6004 35.8 27.6V27.6Z" fill="#CDD3D3"/>
</svg>
