<?xml version="1.0" standalone="no"?>
<!DOCTYPE svg PUBLIC "-//W3C//DTD SVG 20010904//EN"
 "http://www.w3.org/TR/2001/REC-SVG-20010904/DTD/svg10.dtd">
<svg version="1.0" xmlns="http://www.w3.org/2000/svg"
 width="512.000000pt" height="512.000000pt" viewBox="0 0 512.000000 512.000000"
 preserveAspectRatio="xMidYMid meet">

<g transform="translate(0.000000,512.000000) scale(0.100000,-0.100000)"
fill="#000000" stroke="none">
<path d="M4782 4897 c-102 -209 -315 -301 -542 -233 -38 12 206 -232 255 -255
49 -23 84 -24 132 -4 49 21 307 277 333 330 49 100 -4 213 -111 240 -25 6 -29
2 -67 -78z"/>
<path d="M3420 3966 c-474 -69 -907 -333 -1172 -715 l-51 -73 124 -124 c113
-114 125 -123 137 -107 7 10 36 54 64 98 66 103 237 273 349 348 235 156 452
228 736 245 l117 7 117 150 118 150 -62 12 c-98 20 -367 25 -477 9z"/>
<path d="M4213 3693 c-54 -70 -102 -132 -106 -139 -5 -9 6 -20 35 -35 409
-207 592 -676 443 -1134 -144 -441 -571 -797 -1058 -881 -131 -23 -370 -15
-487 16 -176 47 -312 121 -443 241 -84 76 -146 162 -196 271 -58 124 -72 192
-78 363 l-5 150 -136 138 c-75 75 -139 137 -143 137 -6 0 -42 -157 -59 -260
-52 -311 -244 -613 -511 -802 l-88 -62 17 -31 c10 -16 78 -133 152 -260 73
-126 136 -234 140 -238 4 -5 40 8 80 28 159 80 387 135 560 135 127 0 273 -28
444 -85 89 -29 197 -61 241 -70 336 -69 695 -21 1022 135 481 229 814 643 920
1140 22 107 25 390 4 495 -70 356 -284 658 -596 842 l-54 32 -98 -126z m-2074
-1905 c39 -68 71 -131 71 -140 0 -25 -20 -32 -177 -63 -135 -26 -144 -27 -168
-11 -39 26 -51 60 -34 96 23 48 198 240 219 240 13 0 38 -35 89 -122z"/>
</g>
</svg>
